<svg height="40px" width="40px" viewBox="-48 -48 496.00 496.00" fill="none" xmlns="http://www.w3.org/2000/svg"><g id="SVGRepo_bgCarrier" stroke-width="0"></g><g id="SVGRepo_tracerCarrier" stroke-linecap="round" stroke-linejoin="round" stroke="#CCCCCC" stroke-width="80"> <path d="M106.768 140.662C163.254 -2.90955 355.948 97.9398 290.043 216.125C242.945 300.582 120.63 282.23 109.244 182.805" stroke="#11151c" stroke-opacity="0.9" stroke-width="20.8" stroke-linecap="round" stroke-linejoin="round"></path> <path d="M101.76 158.327C93.8997 163.449 93.8997 172.515 104.705 182.61" stroke="#11151c" stroke-opacity="0.9" stroke-width="20.8" stroke-linecap="round" stroke-linejoin="round"></path> <path d="M308.92 162.42C317.261 174.257 308.287 183.487 297.575 182.544" stroke="#11151c" stroke-opacity="0.9" stroke-width="20.8" stroke-linecap="round" stroke-linejoin="round"></path> <path d="M219.557 188.006C221.669 182.902 220.402 176.923 220.815 171.537" stroke="#11151c" stroke-opacity="0.9" stroke-width="20.8" stroke-linecap="round" stroke-linejoin="round"></path> <path d="M185.814 186.976C186.532 180.917 186.887 176.297 185.814 170.508" stroke="#11151c" stroke-opacity="0.9" stroke-width="20.8" stroke-linecap="round" stroke-linejoin="round"></path> <path d="M202.417 79.8564C198.143 97.6747 218.276 118.954 227.685 118.954" stroke="#11151c" stroke-opacity="0.9" stroke-width="20.8" stroke-linecap="round" stroke-linejoin="round"></path> <path d="M172.259 78.0186C170.85 87.1948 182.575 115.882 190.311 110.483" stroke="#11151c" stroke-opacity="0.9" stroke-width="20.8" stroke-linecap="round" stroke-linejoin="round"></path> <path d="M150.086 95.2954C150.904 104.575 152.805 114.421 161.582 115.881" stroke="#11151c" stroke-opacity="0.9" stroke-width="20.8" stroke-linecap="round" stroke-linejoin="round"></path> <path d="M216.674 229.148C202.86 236.591 193.159 240.19 188.217 225.178" stroke="#11151c" stroke-opacity="0.9" stroke-width="20.8" stroke-linecap="round" stroke-linejoin="round"></path> <path d="M71 344C71.0001 325 95 270 123 265M280 265C304.894 265 329 311 329 344" stroke="#11151c" stroke-opacity="0.9" stroke-width="20.8" stroke-linecap="round" stroke-linejoin="round"></path> </g><g id="SVGRepo_iconCarrier"> <path d="M106.768 140.662C163.254 -2.90955 355.948 97.9398 290.043 216.125C242.945 300.582 120.63 282.23 109.244 182.805" stroke="#11151c" stroke-opacity="0.9" stroke-width="20.8" stroke-linecap="round" stroke-linejoin="round"></path> <path d="M101.76 158.327C93.8997 163.449 93.8997 172.515 104.705 182.61" stroke="#11151c" stroke-opacity="0.9" stroke-width="20.8" stroke-linecap="round" stroke-linejoin="round"></path> <path d="M308.92 162.42C317.261 174.257 308.287 183.487 297.575 182.544" stroke="#11151c" stroke-opacity="0.9" stroke-width="20.8" stroke-linecap="round" stroke-linejoin="round"></path> <path d="M219.557 188.006C221.669 182.902 220.402 176.923 220.815 171.537" stroke="#11151c" stroke-opacity="0.9" stroke-width="20.8" stroke-linecap="round" stroke-linejoin="round"></path> <path d="M185.814 186.976C186.532 180.917 186.887 176.297 185.814 170.508" stroke="#11151c" stroke-opacity="0.9" stroke-width="20.8" stroke-linecap="round" stroke-linejoin="round"></path> <path d="M202.417 79.8564C198.143 97.6747 218.276 118.954 227.685 118.954" stroke="#11151c" stroke-opacity="0.9" stroke-width="20.8" stroke-linecap="round" stroke-linejoin="round"></path> <path d="M172.259 78.0186C170.85 87.1948 182.575 115.882 190.311 110.483" stroke="#11151c" stroke-opacity="0.9" stroke-width="20.8" stroke-linecap="round" stroke-linejoin="round"></path> <path d="M150.086 95.2954C150.904 104.575 152.805 114.421 161.582 115.881" stroke="#11151c" stroke-opacity="0.9" stroke-width="20.8" stroke-linecap="round" stroke-linejoin="round"></path> <path d="M216.674 229.148C202.86 236.591 193.159 240.19 188.217 225.178" stroke="#11151c" stroke-opacity="0.9" stroke-width="20.8" stroke-linecap="round" stroke-linejoin="round"></path> <path d="M71 344C71.0001 325 95 270 123 265M280 265C304.894 265 329 311 329 344" stroke="#11151c" stroke-opacity="0.9" stroke-width="20.8" stroke-linecap="round" stroke-linejoin="round"></path> </g></svg>