<svg width="1200pt" height="1200pt" version="1.1" viewBox="0 0 1200 1200" xmlns="http://www.w3.org/2000/svg">
 <g>
  <path d="m210.94 26.16c-20.434 0-38.617 10.918-50.805 26.883-12.188 15.969-19.055 37.23-19.055 60.332v972.07c0 23.105 6.8672 44.363 19.051 60.332 12.188 15.969 30.371 26.883 50.805 26.883h791.71c20.434 0 38.406-10.918 50.594-26.883 12.188-15.969 19.262-37.227 19.262-60.332l0.003906-972.07c0-23.105-7.0781-44.363-19.262-60.332-12.188-15.969-30.16-26.883-50.594-26.883zm0 28.789h791.71c10.348 0 19.832 5.3125 27.73 15.664 7.8984 10.352 13.336 25.531 13.336 42.762v972.07c0 17.23-5.4375 32.41-13.336 42.762-7.8984 10.352-17.383 15.664-27.73 15.664h-791.71c-10.348 0-20.043-5.3125-27.941-15.664-7.9023-10.352-13.34-25.527-13.34-42.762v-972.07c0-17.23 5.4375-32.41 13.336-42.762 7.9023-10.352 17.594-15.664 27.945-15.664z"/>
  <path d="m470.46 408.04c-27.051 4.8203-54.137 22.223-77.266 55.887v0.21094l-0.21094 0.21094s-14.691 23.16-16.301 57.367 10.039 80.355 57.578 126.38c90.848 87.945 164.27 138.66 164.27 138.66l8.2539 5.5039 8.043-5.5039s73.422-50.707 164.27-138.66c47.543-46.023 59.402-92.168 57.793-126.38-1.6094-34.207-16.512-57.367-16.512-57.367v-0.21094l-0.21094-0.21094c-23.129-33.664-50.004-51.066-77.055-55.887-27.051-4.8164-52.898 2.5938-74.512 13.762-36.59 18.898-54.367 42.391-61.812 51.227-7.4375-8.8242-25.426-32.32-62.027-51.227-21.617-11.168-47.25-18.578-74.301-13.762zm5.082 28.156c18.844-3.3555 38.074 1.9102 56.098 11.219 36.043 18.621 63.93 52.711 63.93 52.711l11.219 14.184 11.219-14.184s27.672-34.09 63.719-52.711c18.02-9.3086 37.465-14.574 56.309-11.219 18.723 3.332 38.359 15.141 58.211 43.82 0.097656 0.14453 10.598 16.23 11.855 42.973 1.2656 26.863-6.3867 63.418-48.898 104.57-84.723 82.016-145.67 124-152.41 128.71-6.6562-4.6406-67.633-46.625-152.42-128.71-42.512-41.152-50.375-77.707-49.109-104.57 1.25-26.586 11.426-42.43 11.641-42.762h0.21094c19.938-28.938 39.629-40.684 58.43-44.031z"/>
  <path d="m261.53 100.68c-12.836 2.2344-25.453 10.484-35.352 24.555v0.21094l-0.21094 0.21094s-7.0977 10.816-7.832 26.039 5.3438 35.637 25.191 54.402c35.418 33.488 64.141 52.922 64.141 52.922l8.043 5.5039 8.043-5.5039s28.723-19.434 64.141-52.922c19.848-18.766 25.711-39.18 24.98-54.402-0.73438-15.223-7.6211-26.039-7.6211-26.039l-0.21094-0.21094v-0.21094c-9.8984-14.07-22.727-22.324-35.566-24.555-12.836-2.2344-24.469 1.1836-33.867 5.9258-12.105 6.1094-14.77 10.734-19.898 16.09-5.1328-5.3555-7.7969-9.9805-19.898-16.09-9.3984-4.7422-21.242-8.1602-34.082-5.9258zm5.082 28.156c4.8047-0.83594 10.25 0.44141 16.09 3.3867 11.672 5.8906 21.805 17.57 21.805 17.57l11.004 13.547 11.008-13.551s10.129-11.68 21.805-17.57c5.8359-2.9453 11.285-4.2227 16.09-3.3867 4.7344 0.82422 10.18 3.5352 16.723 12.703 0 0 2.5938 3.7266 2.9648 11.43 0.37109 7.7031-1.3203 18.426-16.09 32.387-29.34 27.742-46.66 39.332-52.5 43.398-5.8438-4.0664-23.164-15.656-52.5-43.398-14.766-13.961-16.461-24.68-16.09-32.387 0.37109-7.7031 2.9648-11.43 2.9648-11.43 6.543-9.1641 11.988-11.879 16.723-12.703z"/>
  <path d="m902.73 928.79-8.043 5.5039s-28.938 19.434-64.352 52.922c-19.848 18.766-25.711 39.18-24.98 54.402 0.73438 15.223 7.832 26.039 7.832 26.039v0.21875l0.21094 0.21875c9.8984 14.07 22.516 22.324 35.352 24.555 12.836 2.2344 24.684-1.1836 34.082-5.9258 12.105-6.1094 14.77-10.734 19.898-16.09 5.1523 5.3594 7.6602 10.02 19.688 16.09 9.3984 4.7422 21.242 8.1602 34.082 5.9258 12.836-2.2344 25.453-10.484 35.352-24.555l0.20703-0.21875v-0.21875s7.0977-10.816 7.832-26.039c0.73828-15.223-5.1328-35.637-24.98-54.402-35.414-33.484-64.348-52.922-64.348-52.922zm0 35.773c5.8438 4.0664 23.16 15.656 52.5 43.395 14.766 13.961 16.461 24.684 16.09 32.387-0.36719 7.707-3.1758 11.43-3.1758 11.43-6.543 9.1602-11.777 11.879-16.512 12.703-4.8047 0.83203-10.465-0.44531-16.301-3.3867-11.672-5.8906-21.594-17.57-21.594-17.57l-11.008-13.543-11.219 13.547s-9.918 11.68-21.594 17.57c-5.8359 2.9453-11.496 4.2227-16.301 3.3867-4.7344-0.82031-9.9688-3.5391-16.512-12.703 0 0-2.8047-3.7266-3.1758-11.43-0.37109-7.707 1.3203-18.426 16.09-32.387 29.406-27.805 46.941-39.383 52.711-43.395z"/>
 </g>
</svg>
